<svg width="320" height="56" viewBox="0 0 320 56" fill="none" xmlns="http://www.w3.org/2000/svg">
<line opacity="0.7" y1="55.5" x2="320" y2="55.5" stroke="#545454"/>
<path d="M30 4.98074V24.1068H32.7456V10.2572H32.9231L38.5638 24.0788H40.8425L46.4832 10.2666H46.6606V24.1068H49.4062V4.98074H45.9041L39.8152 19.8483H39.591L33.5021 4.98074H30Z" fill="white"/>
<path d="M60.0479 24.3963C63.1764 24.3963 65.3897 22.8554 66.0248 20.5207L63.3819 20.0444C62.8776 21.3985 61.6635 22.0896 60.0759 22.0896C57.6852 22.0896 56.0789 20.5393 56.0042 17.775H66.2022V16.7851C66.2022 11.602 63.1017 9.57548 59.8518 9.57548C55.8547 9.57548 53.2212 12.62 53.2212 17.0279C53.2212 21.4826 55.8174 24.3963 60.0479 24.3963ZM56.0135 15.6831C56.1256 13.6472 57.6011 11.8822 59.8705 11.8822C62.0371 11.8822 63.4566 13.4885 63.4659 15.6831H56.0135Z" fill="white"/>
<path d="M80.0495 13.2643C79.4705 11.0323 77.7241 9.57548 74.6236 9.57548C71.383 9.57548 69.0856 11.2845 69.0856 13.8247C69.0856 15.8606 70.3183 17.2147 73.0079 17.8124L75.4361 18.3447C76.8182 18.6529 77.4626 19.2693 77.4626 20.1658C77.4626 21.2771 76.2766 22.1456 74.4461 22.1456C72.7745 22.1456 71.7005 21.4265 71.3643 20.0164L68.6654 20.4273C69.1323 22.9675 71.2429 24.3963 74.4648 24.3963C77.9295 24.3963 80.3296 22.5565 80.3296 19.9603C80.3296 17.9338 79.0409 16.6824 76.4073 16.0753L74.1286 15.5524C72.5503 15.1788 71.8686 14.6465 71.8779 13.6753C71.8686 12.5733 73.064 11.7888 74.6516 11.7888C76.3886 11.7888 77.1918 12.7507 77.5186 13.7126L80.0495 13.2643Z" fill="white"/>
<path d="M90.0958 9.76226H87.154V6.32554H84.3617V9.76226H82.2605V12.0036H84.3617V20.474C84.3524 23.0795 86.3416 24.3403 88.5455 24.2936C89.4327 24.2842 90.0304 24.1161 90.3573 23.9947L89.853 21.688C89.6662 21.7254 89.3207 21.8094 88.8724 21.8094C87.9665 21.8094 87.154 21.5106 87.154 19.895V12.0036H90.0958V9.76226Z" fill="white"/>
<path d="M99.0728 24.3963C103.117 24.3963 105.759 21.4359 105.759 16.9999C105.759 12.5359 103.117 9.57548 99.0728 9.57548C95.0291 9.57548 92.3862 12.5359 92.3862 16.9999C92.3862 21.4359 95.0291 24.3963 99.0728 24.3963ZM99.0821 22.0522C96.4392 22.0522 95.2065 19.7455 95.2065 16.9906C95.2065 14.2449 96.4392 11.9102 99.0821 11.9102C101.706 11.9102 102.939 14.2449 102.939 16.9906C102.939 19.7455 101.706 22.0522 99.0821 22.0522Z" fill="white"/>
<path d="M108.296 6.57458H109.068V4.08421H110.463C110.519 4.08421 110.572 4.08421 110.625 4.0811L111.97 6.57458H112.866L111.425 3.94101C112.237 3.66396 112.617 3.0009 112.617 2.15417C112.617 1.02728 111.945 0.19923 110.45 0.19923H108.296V6.57458ZM109.068 3.38691V0.884082H110.426C111.459 0.884082 111.857 1.38838 111.857 2.15417C111.857 2.91996 111.459 3.38691 110.438 3.38691H109.068Z" fill="white"/>
<path d="M116.817 4.61964C116.817 5.51617 116.132 5.92708 115.584 5.92708C114.974 5.92708 114.539 5.47882 114.539 4.78151V1.79307H113.804V4.83132C113.804 6.0516 114.451 6.63684 115.348 6.63684C116.07 6.63684 116.543 6.25083 116.767 5.76521H116.817V6.57458H117.552V1.79307H116.817V4.61964Z" fill="white"/>
<path d="M122.284 2.86393C122.054 2.1853 121.537 1.73081 120.591 1.73081C119.582 1.73081 118.835 2.30359 118.835 3.11296C118.835 3.77291 119.227 4.21495 120.105 4.42041L120.902 4.60719C121.385 4.71925 121.612 4.94961 121.612 5.27959C121.612 5.6905 121.176 6.0267 120.491 6.0267C119.89 6.0267 119.514 5.76832 119.383 5.25468L118.686 5.42901C118.857 6.24149 119.526 6.6742 120.504 6.6742C121.615 6.6742 122.372 6.06717 122.372 5.24223C122.372 4.57606 121.954 4.15581 121.101 3.94724L120.392 3.77291C119.825 3.63283 119.57 3.44294 119.57 3.07561C119.57 2.6647 120.006 2.36585 120.591 2.36585C121.232 2.36585 121.497 2.72073 121.624 3.05071L122.284 2.86393Z" fill="white"/>
<path d="M126.864 2.86393C126.634 2.1853 126.117 1.73081 125.171 1.73081C124.162 1.73081 123.415 2.30359 123.415 3.11296C123.415 3.77291 123.807 4.21495 124.685 4.42041L125.482 4.60719C125.965 4.71925 126.192 4.94961 126.192 5.27959C126.192 5.6905 125.756 6.0267 125.071 6.0267C124.47 6.0267 124.094 5.76832 123.963 5.25468L123.266 5.42901C123.437 6.24149 124.106 6.6742 125.084 6.6742C126.195 6.6742 126.951 6.06717 126.951 5.24223C126.951 4.57606 126.534 4.15581 125.681 3.94724L124.972 3.77291C124.405 3.63283 124.15 3.44294 124.15 3.07561C124.15 2.6647 124.586 2.36585 125.171 2.36585C125.812 2.36585 126.077 2.72073 126.204 3.05071L126.864 2.86393Z" fill="white"/>
<path d="M128.057 6.57458H128.792V1.79307H128.057V6.57458ZM128.431 0.996149C128.717 0.996149 128.954 0.772015 128.954 0.498074C128.954 0.224134 128.717 0 128.431 0C128.145 0 127.908 0.224134 127.908 0.498074C127.908 0.772015 128.145 0.996149 128.431 0.996149Z" fill="white"/>
<path d="M131.545 6.68665C132.379 6.68665 132.815 6.23838 132.964 5.92708H133.002V6.57458H133.736V3.42426C133.736 1.90513 132.578 1.73081 131.968 1.73081C131.246 1.73081 130.424 1.97985 130.05 2.85148L130.748 3.10051C130.91 2.75186 131.293 2.37831 131.993 2.37831C132.668 2.37831 133.002 2.7363 133.002 3.34955V3.37445C133.002 3.72933 132.64 3.6982 131.769 3.81027C130.882 3.92545 129.913 4.12156 129.913 5.21733C129.913 6.15122 130.636 6.68665 131.545 6.68665ZM131.657 6.0267C131.071 6.0267 130.648 5.76521 130.648 5.25468C130.648 4.69435 131.159 4.52002 131.731 4.44531C132.043 4.40796 132.877 4.3208 133.002 4.17137V4.84377C133.002 5.44146 132.528 6.0267 131.657 6.0267Z" fill="white"/>
<line x1="266" y1="5.5" x2="290" y2="5.5" stroke="white" stroke-width="3"/>
<line x1="266" y1="14.5" x2="290" y2="14.5" stroke="white" stroke-width="3"/>
<line x1="266" y1="23.5" x2="290" y2="23.5" stroke="white" stroke-width="3"/>
</svg>
